HIERARCHY
ROOT Hips
{
	OFFSET 0.000000 0.000000 0.000000
	CHANNELS 6 Xposition Yposition Zposition Yrotation Xrotation Zrotation
	JOINT Chest
	{
		OFFSET 0.000000 -0.009281 11.569106
		CHANNELS 3 Yrotation Xrotation Zrotation
		JOINT Chest2
		{
			OFFSET -0.000000 0.016865 9.269641
			CHANNELS 3 Yrotation Xrotation Zrotation
			JOINT Chest3
			{
				OFFSET -0.000000 0.000001 8.374491
				CHANNELS 3 Yrotation Xrotation Zrotation
				JOINT Chest4
				{
					OFFSET -0.000000 0.000001 8.374493
					CHANNELS 3 Yrotation Xrotation Zrotation
					JOINT Neck
					{
						OFFSET -0.000000 0.000002 12.152554
						CHANNELS 3 Yrotation Xrotation Zrotation
						JOINT Head
						{
							OFFSET -0.000000 0.040101 7.802319
							CHANNELS 3 Yrotation Xrotation Zrotation
							End Site
							{
								OFFSET -0.000000 0.020947 14.853096
							}
						}
					}
					JOINT RightCollar
					{
						OFFSET 2.894404 0.000001 6.791374
						CHANNELS 3 Yrotation Xrotation Zrotation
						JOINT RightShoulder
						{
							OFFSET 13.574684 0.000001 0.000000
							CHANNELS 3 Yrotation Xrotation Zrotation
							JOINT RightElbow
							{
								OFFSET 23.923903 0.000002 0.000000
								CHANNELS 3 Yrotation Xrotation Zrotation
								JOINT RightWrist
								{
									OFFSET 19.846718 0.012767 0.000000
									CHANNELS 3 Yrotation Xrotation Zrotation
									End Site
									{
										OFFSET 14.973145 0.000001 0.000000
									}
								}
							}
						}
					}
					JOINT LeftCollar
					{
						OFFSET -2.894404 0.000001 6.791374
						CHANNELS 3 Yrotation Xrotation Zrotation
						JOINT LeftShoulder
						{
							OFFSET -13.574684 -0.000001 0.000000
							CHANNELS 3 Yrotation Xrotation Zrotation
							JOINT LeftElbow
							{
								OFFSET -23.923903 -0.000002 0.000000
								CHANNELS 3 Yrotation Xrotation Zrotation
								JOINT LeftWrist
								{
									OFFSET -19.846718 0.012763 0.000000
									CHANNELS 3 Yrotation Xrotation Zrotation
									End Site
									{
										OFFSET -14.973145 -0.000001 0.000000
									}
								}
							}
						}
					}
				}
			}
		}
	}
	JOINT RightHip
	{
		OFFSET 9.469263 0.004643 0.045487
		CHANNELS 3 Yrotation Xrotation Zrotation
		JOINT RightKnee
		{
			OFFSET 0.000000 0.002661 -40.478676
			CHANNELS 3 Yrotation Xrotation Zrotation
			JOINT RightAnkle
			{
				OFFSET 0.000000 0.049106 -35.224068
				CHANNELS 3 Yrotation Xrotation Zrotation
				JOINT RightToe
				{
					OFFSET -0.000001 12.539529 -6.151390
					CHANNELS 3 Yrotation Xrotation Zrotation
					End Site
					{
						OFFSET -0.000001 5.044994 -1.291870
					}
				}
			}
		}
	}
	JOINT LeftHip
	{
		OFFSET -9.469263 0.004641 0.045487
		CHANNELS 3 Yrotation Xrotation Zrotation
		JOINT LeftKnee
		{
			OFFSET 0.000000 0.002661 -40.478676
			CHANNELS 3 Yrotation Xrotation Zrotation
			JOINT LeftAnkle
			{
				OFFSET 0.000000 0.049106 -35.224068
				CHANNELS 3 Yrotation Xrotation Zrotation
				JOINT LeftToe
				{
					OFFSET -0.000001 12.539529 -6.151390
					CHANNELS 3 Yrotation Xrotation Zrotation
					End Site
					{
						OFFSET -0.000001 5.044994 -1.291870
					}
				}
			}
		}
	}
}
MOTION
Frames: 7
Frame Time: 0.016667
19.158859 8.748585 83.420891 -8.535526 -1.974781 -112.651546 -0.181901 -5.482899 6.310289 -0.008715 -2.455325 2.741470 -0.008715 -2.455325 2.741470 0.004485 -1.841578 2.055751 3.908263 -23.966046 -2.012419 6.505962 -8.308513 -2.619937 5.886565 3.115041 -17.063775 62.022291 35.540350 13.590321 10.930559 36.701298 15.268497 -17.776052 20.791939 20.659867 -11.082264 -1.701368 -17.268931 -48.445408 48.933664 -30.961753 3.135984 30.778212 -5.938683 55.655038 15.681192 -11.994913 -1.373154 -9.464403 4.610367 0.723436 -3.526156 1.707211 -0.607084 3.426280 -0.223786 0.257844 0.195404 -0.046219 -0.117168 -7.644427 -0.209161 0.360556 -5.252626 -4.264798 -1.893791 4.136442 2.023400 0.478699 -0.881546 0.003298 
19.184753 8.948545 83.420792 -8.596851 -1.925209 -111.985022 -0.151998 -5.446842 6.218367 0.004998 -2.433812 2.693092 0.004998 -2.433811 2.693091 0.014479 -1.825378 2.019533 4.055237 -23.986118 -2.322071 6.691059 -8.336209 -3.139122 5.823375 3.078258 -17.059246 62.102498 35.494260 13.408915 10.891852 37.100543 15.181142 -18.408581 21.276719 20.932286 -11.037064 -2.089608 -17.668279 -49.921941 48.058389 -33.595382 0.831842 30.290339 -9.465933 57.199207 17.539694 -13.181108 -1.473630 -9.529911 4.358273 0.754043 -3.584802 1.473121 -0.597299 3.455499 -0.355495 0.290385 0.207687 -0.044156 -0.199370 -7.765151 -0.559078 0.302391 -4.835595 -4.046263 -2.025195 3.973486 1.683642 0.595837 -0.868950 0.006984 
19.216522 9.163674 83.423492 -8.674297 -1.897341 -111.347206 -0.130024 -5.423439 6.132389 0.017348 -2.418862 2.647104 0.017349 -2.418862 2.647106 0.023493 -1.814113 1.985101 4.228553 -24.003049 -2.668687 6.914098 -8.356858 -3.717817 5.826264 3.011167 -17.007262 62.188722 35.478000 13.296496 10.810476 37.562035 15.056616 -19.105031 21.807986 21.119367 -10.912974 -2.438773 -17.868265 -51.481250 46.600284 -36.172822 -1.427690 29.628879 -13.118119 57.985369 19.009135 -14.019691 -1.581600 -9.593691 4.155564 0.793526 -3.670692 1.205350 -0.576970 3.478129 -0.474477 0.319523 0.224667 -0.038258 -0.287985 -7.930163 -0.800812 0.266444 -4.397904 -3.922750 -2.118764 3.786407 1.363918 0.661968 -0.848831 0.007693 
19.258072 9.377112 83.427742 -8.763738 -1.877713 -110.755008 -0.108147 -5.406609 6.054491 0.029013 -2.406062 2.604459 0.029013 -2.406062 2.604457 0.032017 -1.804460 1.953169 4.416437 -24.025298 -3.054044 7.153584 -8.385936 -4.362522 5.876825 2.952869 -16.922550 62.231349 35.438672 13.208106 10.712464 38.053805 14.907892 -19.941352 22.376943 21.260166 -10.818664 -2.704688 -17.991149 -52.879547 44.737657 -38.392364 -3.718663 28.739315 -16.891128 58.401048 19.539305 -14.762064 -1.689041 -9.687241 3.953839 0.825312 -3.744536 0.899298 -0.548555 3.501676 -0.518444 0.342075 0.240177 -0.032384 -0.386156 -8.157303 -0.927105 0.243891 -3.880307 -4.117004 -2.160976 3.545156 1.274650 0.684269 -0.816486 0.011603 
19.314608 9.584363 83.433388 -8.840103 -1.855327 -110.203818 -0.085234 -5.396662 5.949151 0.041406 -2.396718 2.550653 0.041406 -2.396718 2.550653 0.041058 -1.797402 1.912874 4.597062 -24.044358 -3.449890 7.377442 -8.408576 -5.027712 5.918915 2.884300 -16.821055 62.334137 35.345952 13.223418 10.634565 38.569450 14.754622 -20.944411 22.931932 21.321696 -10.724601 -3.029915 -18.162040 -54.158633 42.871021 -40.352635 -5.914981 27.288916 -20.454147 58.635098 19.716629 -15.282888 -1.803581 -9.788993 3.702867 0.857724 -3.785450 0.624348 -0.517246 3.514832 -0.513547 0.358971 0.252019 -0.025777 -0.471975 -8.428563 -0.980546 0.207818 -3.286014 -4.593196 -2.158690 3.257937 1.352118 0.674791 -0.769622 0.012556 
19.385235 9.783333 83.439728 -8.894510 -1.835775 -109.704238 -0.067325 -5.381771 5.843484 0.052304 -2.387197 2.498141 0.052304 -2.387197 2.498141 0.048987 -1.790220 1.873541 4.784717 -24.058947 -3.870799 7.607559 -8.422025 -5.735883 5.932572 2.863481 -16.819457 62.533681 35.111141 13.316017 10.565036 39.139217 14.606708 -22.026248 23.500997 21.358654 -10.486919 -3.627151 -18.576195 -55.480469 41.356280 -42.193323 -7.900865 25.161981 -23.651806 58.575723 20.131790 -15.592712 -1.913173 -9.900407 3.395635 0.882481 -3.784522 0.427469 -0.483329 3.513600 -0.481534 0.370353 0.264033 -0.020850 -0.558665 -8.701963 -1.044348 0.174351 -2.680857 -5.041699 -2.140555 2.952775 1.442957 0.650322 -0.713112 0.012124 
19.468878 9.981351 83.445320 -8.925753 -1.835280 -109.278109 -0.041431 -5.341473 5.721185 0.068341 -2.368579 2.437924 0.068341 -2.368579 2.437926 0.060703 -1.776195 1.828447 4.954417 -24.082506 -4.291998 7.805722 -8.452181 -6.449412 5.939705 2.844201 -16.812552 62.807428 34.794896 13.454721 10.545658 39.770238 14.539647 -23.164061 24.085793 21.324675 -10.202978 -4.346475 -18.944342 -56.618898 39.853508 -43.701815 -9.810313 22.601929 -26.657124 58.565184 20.307565 -15.771895 -2.016840 -9.994949 3.066995 0.910044 -3.784579 0.311515 -0.437817 3.509479 -0.437581 0.370616 0.279443 -0.020994 -0.624978 -8.958044 -1.116283 0.125043 -2.125931 -5.230071 -2.116513 2.672169 1.358904 0.624211 -0.657705 0.012034 
